<?xml version="1.0" encoding="UTF-8" standalone="no"?>
<!-- Created with Inkscape (http://www.inkscape.org/) -->

<svg
   width="326.00003mm"
   height="326mm"
   viewBox="0 0 326.00003 326"
   version="1.1"
   id="svg4528"
   xml:space="preserve"
   sodipodi:docname="/tmp/ink_ext_XXXXXX.svgUVS3J2"
   xmlns:inkscape="http://www.inkscape.org/namespaces/inkscape"
   xmlns:sodipodi="http://sodipodi.sourceforge.net/DTD/sodipodi-0.dtd"
   xmlns:xlink="http://www.w3.org/1999/xlink"
   xmlns="http://www.w3.org/2000/svg"
   xmlns:svg="http://www.w3.org/2000/svg"><sodipodi:namedview
     id="namedview4530"
     pagecolor="#ffffff"
     bordercolor="#000000"
     borderopacity="0.25"
     inkscape:showpageshadow="2"
     inkscape:pageopacity="0.0"
     inkscape:pagecheckerboard="0"
     inkscape:deskcolor="#d1d1d1"
     inkscape:document-units="mm"
     showgrid="false"
     inkscape:zoom="0.22338261"
     inkscape:cx="2401.7089"
     inkscape:cy="358.12994"
     inkscape:window-width="1920"
     inkscape:window-height="1131"
     inkscape:window-x="0"
     inkscape:window-y="32"
     inkscape:window-maximized="1"
     inkscape:current-layer="layer1" /><defs
     id="defs4525"><linearGradient
       inkscape:collect="always"
       id="linearGradient37535"><stop
         style="stop-color:#000000;stop-opacity:1;"
         offset="0"
         id="stop37531" /><stop
         style="stop-color:#ffffff;stop-opacity:0;"
         offset="1"
         id="stop37533" /></linearGradient><linearGradient
       inkscape:collect="always"
       xlink:href="#linearGradient37535"
       id="linearGradient77261"
       gradientUnits="userSpaceOnUse"
       x1="892.67444"
       y1="-224.06024"
       x2="1042.9896"
       y2="-73.745102"
       gradientTransform="translate(-238.45861,276.20384)" /></defs><g
     inkscape:label="Livello 1"
     inkscape:groupmode="layer"
     id="layer1"
     transform="translate(-467.69444,95.346166)"><g
       id="g81920"
       inkscape:export-filename="./logo-128.png"
       inkscape:export-xdpi="9.9730062"
       inkscape:export-ydpi="9.9730062"><circle
         style="fill:#eff1ec;fill-opacity:1;stroke:#000000;stroke-width:0.00180279;stroke-dasharray:none;stroke-opacity:1"
         id="path23550"
         cx="630.69446"
         cy="67.653831"
         inkscape:export-filename="./logo.svg"
         inkscape:export-xdpi="96"
         inkscape:export-ydpi="96"
         r="162.9991" /><g
         id="g81898"><path
           id="path81883"
           style="opacity:0.063022;fill:url(#linearGradient77261);fill-opacity:1;stroke-width:0.627228"
           d="m 626.13026,230.46397 a 162.9991,162.9991 0 0 0 4.56406,0.18913 162.9991,162.9991 0 0 0 13.46068,-0.55707 162.9991,162.9991 0 0 0 13.36817,-1.66605 162.9991,162.9991 0 0 0 13.18524,-2.76468 162.9991,162.9991 0 0 0 12.91188,-3.84421 162.9991,162.9991 0 0 0 12.55014,-4.89686 162.9991,162.9991 0 0 0 12.10313,-5.91695 162.9991,162.9991 0 0 0 11.57294,-6.89622 162.9991,162.9991 0 0 0 10.96419,-7.82795 162.9991,162.9991 0 0 0 10.27999,-8.70696 162.9991,162.9991 0 0 0 9.52604,-9.52604 162.9991,162.9991 0 0 0 8.70696,-10.27999 162.9991,162.9991 0 0 0 7.82794,-10.96419 162.9991,162.9991 0 0 0 6.89622,-11.57293 162.9991,162.9991 0 0 0 5.91695,-12.10314 162.9991,162.9991 0 0 0 4.89686,-12.55014 162.9991,162.9991 0 0 0 3.84421,-12.91187 162.9991,162.9991 0 0 0 2.76469,-13.185245 162.9991,162.9991 0 0 0 1.66605,-13.368176 162.9991,162.9991 0 0 0 0.55707,-13.460677 162.9991,162.9991 0 0 0 -0.061,-4.411101 h -0.37155 v -1.044897 h -1.04955 v -1.044898 h -1.04024 v -1.044897 h -1.05007 v -1.043864 h -1.03973 v -1.045414 h -1.05006 v -1.044898 h -1.04025 v -1.044897 h -1.03973 v -1.043864 h -1.05007 V 53.839608 H 783.8612 V 52.79471 h -1.05007 v -1.044897 h -1.03973 v -1.044898 h -1.05006 v -1.043864 h -1.03973 v -1.045414 h -1.05007 V 47.57074 h -1.04024 v -1.044898 h -1.05007 v -1.043864 h -1.03973 v -1.044897 h -1.05006 v -1.045414 h -1.04025 v -1.044898 h -1.04955 v -1.044897 h -1.04025 v -1.043864 h -1.05006 v -1.045414 h -1.03973 v -1.044898 h -1.05007 v -1.044897 h -1.04024 v -1.043864 h -1.05007 v -1.044898 h -1.03973 v -1.045414 h -1.04024 v -1.044897 h -1.05007 v -1.044898 h -1.03973 v -1.043864 h -1.04903 v -1.044897 h -1.0449 v -1.045414 h -1.04489 v -1.044898 h -1.04542 v -1.043864 h -1.04386 v -1.044897 h -1.0449 v -1.044898 h -1.0449 v -1.045414 h -1.04541 v -1.044897 h -1.04387 v -1.043864 h -1.04489 v -1.044898 h -1.0449 v -1.045414 h -1.0449 v -1.044898 h -1.04438 v -1.043864 h -1.0449 V 16.22795 h -1.04489 v -1.044897 h -1.0449 v -1.045415 h -1.0449 v -1.043864 h -1.04438 v -1.044897 h -1.0449 v -1.044898 h -1.04489 V 9.959082 h -1.0449 V 8.9136678 h -1.04438 V 7.8698039 h -1.0449 V 6.8249064 h -1.0449 V 5.780009 h -1.04489 V 4.7345947 h -1.0449 V 3.6907308 h -1.04438 V 2.6458333 h -1.0449 V 1.6009359 h -1.0449 V 0.55603841 h -1.0449 v -1.04541422 h -1.04386 V -1.5332397 h -1.04541 v -1.0448975 h -1.0449 v -1.0448975 h -1.0449 v -1.0448974 h -1.0449 v -1.0443807 h -1.04438 v -1.0448975 h -1.04489 v -1.0448974 h -1.0449 v -1.0448975 h -1.0449 v -1.0448975 h -1.04386 v -1.0443803 h -1.04542 v -1.044898 h -1.04489 v -1.044897 h -1.0449 v -1.044898 h -1.04387 v -1.04438 h -1.04489 v -1.044898 h -1.04542 v -1.044897 h -1.0449 v -1.044898 h -1.04489 v -1.044897 h -1.04387 v -1.044381 h -1.04489 v -1.044897 h -1.04542 v -1.044898 h -1.0449 v -1.044897 h -1.04386 V -24.5184 h -1.0449 v -1.044898 h -1.04541 v -1.044897 l -50.60156,0.0072 -21.79609,0.0026 -25.5912,0.0041 -5.39399,1.83503 c -12.81498,4.35899 -23.12976,13.637245 -30.30874,25.16022111 v 0.001034 C 557.8156,21.185001 555.07451,49.279686 566.30549,69.037646 l 0.001,0.001 c 2.08025,3.659237 4.6439,7.029574 7.7065,10.017993 0.33598,0.350772 0.68395,0.692655 1.03302,1.033529 0.34336,0.358799 0.69923,0.708333 1.05626,1.056783 0.34159,0.356648 0.6955,0.704169 1.05058,1.050582 0.34124,0.356136 0.69431,0.703078 1.04904,1.049031 0.3365,0.351089 0.68544,0.692882 1.03508,1.034046 0.3359,0.350683 0.68403,0.69222 1.03301,1.033012 0.34347,0.358891 0.69912,0.708763 1.05626,1.057299 0.34503,0.360223 0.70208,0.711138 1.06092,1.060918 0.33605,0.350466 0.68388,0.691918 1.03301,1.032495 0.33637,0.351069 0.68509,0.692893 1.03456,1.034045 0.33772,0.352771 0.68777,0.696449 1.0387,1.039213 0.34735,0.362928 0.70679,0.716849 1.06815,1.069186 0.33937,0.354048 0.69064,0.698848 1.04335,1.04283 0.33449,0.348984 0.68142,0.688666 1.02888,1.027844 0.34122,0.356435 0.69431,0.70385 1.04903,1.050065 0.34023,0.355261 0.69282,0.701341 1.04645,1.046448 0.34503,0.360221 0.70208,0.71114 1.06091,1.060917 0.33606,0.350468 0.68388,0.69192 1.03302,1.032495 0.33636,0.351071 0.68508,0.692894 1.03456,1.034046 0.33924,0.354328 0.69026,0.699631 1.04283,1.043864 0.34597,0.361383 0.70415,0.713663 1.06402,1.064543 0.33936,0.35406 0.69064,0.69882 1.04334,1.04283 0.33599,0.35054 0.68395,0.69184 1.03302,1.03249 0.34168,0.35682 0.69536,0.70452 1.05058,1.0511 0.33598,0.3507 0.68396,0.69221 1.03301,1.03301 0.34782,0.36331 0.70784,0.71753 1.0697,1.07022 0.33564,0.35002 0.68329,0.69081 1.03198,1.03094 0.33637,0.35108 0.68508,0.6929 1.03456,1.03405 0.33924,0.35433 0.69027,0.69963 1.04283,1.04386 0.34598,0.36139 0.70416,0.71366 1.06402,1.06454 0.33936,0.35408 0.69064,0.69883 1.04335,1.04283 0.33599,0.35054 0.68394,0.69185 1.03301,1.03249 0.34169,0.35682 0.69536,0.70453 1.05058,1.0511 0.33599,0.3507 0.68396,0.69222 1.03301,1.03301 0.34782,0.36332 0.70784,0.71753 1.06971,1.07022 0.33563,0.35002 0.68328,0.6908 1.03197,1.03095 0.27576,0.28781 0.56293,0.56685 0.8475,0.84801 l -8.12354,0.0563 -47.178,0.32917 v 0.001 21.98574 0.001 21.98781 h 10e-4 1.04386 v 1.04541 h 1.04541 v 1.04386 h 1.04387 v 1.0449 h 10e-4 1.04387 v 1.0449 h 10e-4 1.04386 v 1.0449 h 10e-4 1.04386 v 1.04438 h 1.04542 v 1.04489 c 0.004,0 0.9995,1e-5 1.04386,0 v 1.0449 h 10e-4 c 0.004,0 0.99953,10e-6 1.04387,0 v 1.0449 h 0.001 1.04386 v 1.04541 c 0.004,0 1.001,1e-5 1.04542,0 v 1.04387 h 1.04386 v 1.04489 h 0.001 c 0.004,0 0.9996,1e-5 1.04386,0 v 1.0449 h 10e-4 c 0.004,0 0.99963,1e-5 1.04387,0 v 1.0449 h 10e-4 1.04386 v 1.0449 c 0.004,-1e-5 1.00109,0 1.04542,0 v 1.04438 h 1.04386 v 1.0449 h 10e-4 1.04386 v 1.04489 h 10e-4 c 0.004,0 0.99974,1e-5 1.04387,0 v 1.0449 c 0.004,0 1.00069,1e-5 1.0449,0 v 1.04438 c 0.004,0 1.00023,1e-5 1.04438,0 v 1.0449 h 0.001 1.04386 v 1.0449 h 10e-4 1.04386 v 1.04489 c 0.004,0 1.00077,1e-5 1.0449,0 v 1.04438 c 0.004,0 1.00031,1e-5 1.04438,0 v 1.0449 h 5.2e-4 c 0.004,0 1.00032,10e-6 1.04438,0 v 1.0449 h 10e-4 1.04386 v 1.0449 h 10e-4 1.04386 v 1.04489 c 0.004,0 1.00086,1e-5 1.0449,0 v 1.04438 c 0.003,0 1.0004,1e-5 1.04438,0 v 1.0449 h 10e-4 c 0.003,0 0.99997,1e-5 1.04387,0 v 1.0449 h 10e-4 1.04386 v 1.0449 c 0.003,-1e-5 1.00094,0 1.0449,0 v 1.04438 h 1.04387 v 1.04489 h 10e-4 c 0.003,0 1.00052,1e-5 1.04438,0 v 1.0449 h 10e-4 c 0.003,0 1.00006,1e-5 1.04387,0 v 1.0449 c 0.003,0 1.00101,10e-6 1.04489,0 v 1.04438 c 0.003,0 1.00104,1e-5 1.0449,0 v 1.0449 h 1.04438 v 1.0449 h 5.2e-4 1.04438 v 1.04489 h 10e-4 c 0.003,0 1.00016,1e-5 1.04387,0 v 1.0449 c 0.003,0 1.00111,1e-5 1.0449,0 v 1.04438 c 0.003,0 1.00019,10e-6 1.04386,0 v 1.0449 h 10e-4 1.04438 v 1.0449 h 10e-4 1.04386 v 1.04489 c 0.003,0 1.00119,1e-5 1.0449,0 v 1.04438 c 0.003,0 1.00027,1e-5 1.04386,0 v 1.0449 h 10e-4 c 0.003,0 1.00029,1e-5 1.04386,0 v 1.0449 h 0.001 1.04438 v 1.0449 h 10e-4 c 0.003,-10e-6 1.00033,0 1.04386,0 v 1.04438 h 1.0449 v 1.04489 c 0.003,0 1.00037,1e-5 1.04386,0 v 1.0449 h 10e-4 c 0.003,0 1.00038,1e-5 1.04386,0 v 1.0449 h 10e-4 c 0.003,0 1.00089,10e-6 1.04438,0 v 1.04438 c 0.003,0 1.00136,1e-5 1.0449,0 v 1.0449 h 1.04387 v 1.0449 h 10e-4 1.04386 v 1.04489 h 0.001 c 0.003,0 1.00096,1e-5 1.04438,0 v 1.0449 c 0.003,0 1.00143,1e-5 1.0449,0 v 1.04438 c 0.003,0 1.00147,1e-5 1.04489,0 v 1.0449 h 1.04387 v 1.0449 h 0.001 1.04386 v 1.04489 h 10e-4 c 0.003,0 1.00105,1e-5 1.04438,0 v 1.04438 c 0.003,0 1.00155,1e-5 1.0449,0 v 1.0449 c 0.003,0 1.00061,1e-5 1.04386,0 v 1.0449 h 10e-4 1.04387 z" /><g
           id="g23442"
           transform="translate(88.772386,-58.015783)"
           inkscape:export-filename="./logo.ok.svg"
           inkscape:export-xdpi="96"
           inkscape:export-ydpi="96"><path
             id="path17736"
             style="fill:#31a3e1;fill-opacity:1;stroke-width:0.627228"
             d="m 542.9534,125.76936 h 64.41364 l 1.33687,-1.33687 c -2.46136,-4.33013 -5.59064,-8.26131 -9.43354,-11.62564 -11.34985,-9.93647 -22.48722,-13.009501 -49.30758,-13.605371 l -7.00939,-0.15607 z" /><path
             id="path17748"
             style="fill:#31a3e1;fill-opacity:1;stroke-width:0.627228"
             d="m 566.67443,166.46249 40.69261,-40.69313 H 542.9534 v 26.8888 c 1.77821,0.009 3.60035,0.005 5.51077,-0.0232 l 11.08873,-0.16175 2.096,1.34824 c 4.26293,2.74225 5.93482,7.95474 5.02553,12.64109 z" /><path
             id="path17741"
             style="fill:#0f2233;fill-opacity:1;stroke-width:0.627228"
             d="m 572.15678,160.97962 32.09003,32.09054 c 12.94766,-20.7836 15.68833,-48.87909 4.4571,-68.63767 z" /><path
             id="path17744"
             style="fill:#234a69;fill-opacity:1;stroke-width:0.627228"
             d="m 542.9534,220.068 25.59068,-0.004 5.39451,-1.83503 c 12.81492,-4.35892 23.12951,-13.6359 30.30822,-25.15919 l -32.09003,-32.09054 -5.48235,5.48287 c -0.58958,3.03859 -2.26147,5.85659 -5.02553,7.63467 l -2.096,1.34824 -16.5995,0.13488 z" /><path
             id="path17734"
             style="fill:#85b2c7;fill-opacity:1;stroke-width:0.677314"
             d="m 543.10235,220.068 v -44.48772 l -27.82152,0.19327 -47.17848,0.32866 v 21.9878 21.98832 l 52.4204,-0.007 z" /><path
             id="path17736-0"
             style="fill:#537193;fill-opacity:1;stroke-width:0.627228"
             d="m 542.98313,125.8965 h -64.41364 l -1.33687,1.33687 c 2.46136,4.33013 5.59064,8.26131 9.43354,11.62564 11.34985,9.93647 22.48722,13.0095 49.30758,13.60537 l 7.00939,0.15607 z" /><path
             id="path17748-2"
             style="fill:#537193;fill-opacity:1;stroke-width:0.627228"
             d="M 519.2621,85.203373 478.56949,125.8965 h 64.41364 V 99.007699 c -1.77821,-0.009 -3.60035,-0.005 -5.51077,0.0232 l -11.08873,0.16175 -2.096,-1.34824 c -4.26293,-2.74225 -5.93482,-7.954736 -5.02553,-12.641086 z" /><path
             id="path17741-5"
             style="fill:#87b4cb;fill-opacity:1;stroke-width:0.627228"
             d="m 513.77975,90.686243 -32.09003,-32.09054 c -12.94766,20.7836 -15.68833,48.879087 -4.4571,68.637667 z" /><path
             id="path17744-8"
             style="fill:#a7c8d7;fill-opacity:1;stroke-width:0.627228"
             d="m 542.98313,31.597863 -25.59068,0.0036 -5.39451,1.83503 c -12.81492,4.358917 -23.12951,13.635895 -30.30822,25.15919 l 32.09003,32.09054 5.48235,-5.48287 c 0.58958,-3.03859 2.26147,-5.85659 5.02553,-7.63467 l 2.096,-1.34824 16.5995,-0.13488 z" /><path
             id="path17734-9"
             style="fill:#254c6b;fill-opacity:1;stroke-width:0.665462"
             d="m 542.98313,31.597863 v 44.48772 l 26.85635,-0.19327 45.54179,-0.32866 v -21.9878 -21.988325 l -50.60186,0.0072 z" /></g></g></g><ellipse
       style="fill:none;fill-opacity:1;stroke:#000000;stroke-width:0.002;stroke-dasharray:none;stroke-opacity:1"
       id="ellipse77949"
       cx="630.69446"
       cy="67.817146"
       rx="154.12358"
       ry="163.16245"
       inkscape:export-filename="./logo.svg"
       inkscape:export-xdpi="96"
       inkscape:export-ydpi="96" /></g></svg>
